<?xml version="1.0" standalone="no"?>
<!DOCTYPE svg PUBLIC "-//W3C//DTD SVG 20010904//EN"
 "http://www.w3.org/TR/2001/REC-SVG-20010904/DTD/svg10.dtd">
<svg version="1.0" xmlns="http://www.w3.org/2000/svg"
 width="1024.000000pt" height="1024.000000pt" viewBox="0 0 1024.000000 1024.000000"
 preserveAspectRatio="xMidYMid meet">
<metadata>
Created by potrace 1.11, written by Peter Selinger 2001-2013
</metadata>
<g transform="translate(0.000000,1024.000000) scale(0.100000,-0.100000)"
fill="#000000" stroke="none">
<path d="M5860 9227 c0 -15 -3 -16 -21 -6 -12 6 -19 7 -15 1 3 -5 -15 -9 -45
-8 -28 1 -52 -1 -54 -4 -2 -4 -18 -6 -35 -5 -16 1 -30 -1 -30 -5 0 -3 -12 -5
-27 -5 -16 1 -34 -3 -40 -8 -7 -5 -13 -6 -13 -2 0 4 -7 2 -15 -5 -10 -9 -15
-9 -15 -1 0 7 -6 8 -17 2 -34 -16 -86 -30 -94 -25 -5 3 -9 1 -9 -4 0 -5 -6 -9
-12 -10 -15 -1 -53 -10 -53 -12 0 -1 -8 -3 -17 -5 -31 -6 -93 -27 -104 -36 -6
-5 -14 -6 -17 -2 -4 3 -7 0 -7 -7 0 -7 -3 -10 -6 -7 -4 3 -16 1 -28 -5 -11 -7
-24 -11 -28 -10 -5 1 -8 -3 -8 -9 0 -6 -6 -9 -14 -6 -8 3 -19 0 -25 -7 -5 -6
-26 -18 -46 -26 -19 -7 -35 -18 -35 -22 0 -5 -4 -7 -9 -3 -5 3 -12 1 -16 -5
-4 -6 -10 -8 -15 -5 -4 3 -10 -2 -14 -10 -3 -8 -10 -15 -17 -15 -6 0 -23 -9
-39 -20 -15 -11 -30 -17 -33 -13 -4 3 -9 -2 -13 -11 -3 -9 -10 -13 -15 -10 -5
3 -9 0 -9 -5 0 -6 -9 -11 -19 -11 -10 0 -21 -7 -25 -15 -3 -8 -12 -15 -21 -15
-8 0 -15 -4 -15 -9 0 -5 -9 -13 -20 -16 -11 -4 -18 -11 -15 -16 4 -5 -1 -9 -9
-9 -9 0 -16 -5 -16 -11 0 -5 -4 -8 -9 -5 -5 3 -11 -1 -15 -9 -3 -8 -13 -15
-21 -15 -9 0 -13 -4 -10 -10 3 -5 1 -10 -6 -10 -6 0 -22 -11 -34 -24 -13 -14
-26 -22 -29 -19 -3 4 -6 -1 -6 -10 0 -9 -4 -17 -10 -17 -13 0 -150 -138 -150
-151 0 -6 -3 -8 -7 -6 -5 3 -24 -17 -43 -43 -19 -27 -39 -46 -44 -43 -5 3 -6
2 -3 -4 4 -6 -9 -28 -28 -49 -19 -21 -35 -42 -35 -46 0 -3 -12 -20 -26 -37
-14 -17 -23 -31 -20 -31 3 0 -2 -9 -12 -20 -9 -12 -17 -26 -17 -33 -1 -7 -7
-11 -14 -9 -8 2 -11 -3 -8 -13 4 -8 2 -15 -3 -15 -6 0 -10 -7 -10 -16 0 -9 -5
-12 -12 -8 -7 4 -10 4 -6 -1 4 -4 2 -17 -4 -29 -7 -11 -11 -24 -10 -28 1 -5
-2 -8 -8 -8 -5 0 -10 -9 -10 -21 0 -13 -4 -18 -12 -13 -8 5 -9 2 -5 -9 3 -10
3 -17 -1 -17 -9 0 -32 -49 -32 -67 0 -7 -5 -13 -12 -13 -6 0 -8 -3 -5 -6 3 -4
1 -16 -5 -28 -7 -11 -13 -23 -13 -26 -1 -3 -7 -18 -13 -33 -7 -16 -12 -35 -12
-43 0 -8 -4 -14 -9 -14 -5 0 -7 -9 -4 -20 3 -12 0 -20 -6 -20 -7 0 -9 -4 -6
-10 3 -5 2 -10 -2 -10 -5 0 -10 -8 -11 -17 -3 -37 -8 -59 -16 -71 -4 -6 -4
-16 -1 -22 3 -5 2 -10 -3 -10 -6 0 -9 -13 -8 -30 1 -16 -1 -30 -6 -30 -4 0 -8
-9 -8 -21 0 -11 -5 -30 -11 -41 -9 -16 -8 -19 3 -12 10 6 11 4 2 -7 -5 -8 -11
-30 -13 -49 -2 -19 -8 -38 -15 -42 -8 -6 -7 -8 2 -8 9 0 10 -6 4 -17 -4 -10
-8 -33 -7 -50 1 -18 -3 -33 -8 -33 -5 0 -4 -7 3 -15 8 -10 9 -15 1 -15 -7 0
-8 -8 -1 -26 6 -15 6 -23 1 -19 -10 6 -8 -41 2 -51 3 -4 2 -15 -3 -25 -7 -12
-7 -20 0 -24 6 -4 7 -12 3 -18 -10 -16 -10 -37 -1 -64 5 -16 3 -23 -5 -23 -8
0 -7 -4 3 -10 12 -7 11 -9 -5 -8 -17 2 -20 9 -19 47 0 25 -3 53 -7 62 -5 9 -3
21 4 29 9 10 9 11 0 6 -12 -7 -16 6 -16 57 0 9 -3 17 -7 17 -5 0 -7 14 -6 30
1 18 -3 30 -10 30 -7 0 -11 8 -10 18 2 9 -5 40 -15 69 -9 28 -15 54 -12 57 4
3 1 6 -5 6 -7 0 -12 11 -12 25 0 14 -4 25 -10 25 -5 0 -10 9 -10 20 0 11 -4
20 -8 20 -5 0 -9 6 -9 13 0 20 -66 156 -73 152 -4 -2 -7 2 -8 10 -1 8 -3 22
-4 30 -1 8 -5 12 -10 9 -4 -3 -8 0 -8 7 0 7 -6 20 -14 28 -8 9 -16 22 -18 30
-2 8 -10 22 -18 31 -36 40 -48 59 -43 64 4 3 1 6 -5 6 -6 0 -14 9 -17 20 -4
11 -11 18 -16 15 -5 -4 -9 0 -9 7 0 20 -210 250 -210 231 0 -4 -5 0 -11 10 -5
9 -17 17 -25 17 -8 0 -12 4 -9 10 3 5 -5 15 -19 22 -14 6 -26 15 -26 19 0 4
-9 11 -20 14 -11 4 -18 11 -15 16 4 5 -1 9 -9 9 -9 0 -16 5 -16 11 0 5 -4 8
-8 5 -5 -3 -14 4 -22 14 -8 10 -17 17 -21 14 -4 -2 -14 4 -21 13 -7 10 -20 19
-28 21 -8 2 -17 8 -18 13 -2 5 -8 7 -13 3 -5 -3 -9 0 -9 5 0 6 -7 11 -15 11
-8 0 -15 5 -15 11 0 6 -7 9 -15 5 -8 -3 -15 -2 -15 2 0 9 -71 47 -83 44 -4 -1
-10 4 -13 12 -3 8 -12 12 -20 9 -8 -3 -14 0 -14 7 0 7 -7 10 -15 6 -8 -3 -15
-1 -15 5 0 6 -4 8 -9 4 -5 -3 -15 1 -23 8 -7 8 -19 12 -26 9 -6 -2 -12 1 -12
7 0 6 -7 8 -15 5 -8 -4 -15 -1 -15 6 0 6 -4 8 -10 5 -6 -3 -10 -2 -10 4 0 5
-8 8 -17 6 -10 -1 -27 2 -38 8 -11 6 -24 10 -29 9 -4 -2 -14 2 -20 8 -7 5 -16
7 -19 3 -4 -3 -7 -2 -7 3 0 5 -8 10 -17 10 -10 1 -34 5 -53 9 -19 4 -41 8 -47
8 -7 0 -13 3 -13 7 0 4 -14 5 -30 2 -21 -3 -30 0 -30 9 0 11 -2 11 -10 -1 -5
-8 -10 -10 -10 -4 0 5 -10 11 -22 11 -13 1 -56 2 -96 4 -40 1 -75 6 -78 11 -3
5 -11 5 -17 1 -20 -12 -137 -12 -137 1 0 8 -3 7 -8 -1 -4 -7 -40 -13 -85 -15
-42 -2 -77 -5 -77 -9 0 -3 -19 -5 -41 -6 -23 0 -45 -7 -50 -14 -5 -9 -9 -10
-9 -2 0 8 -13 7 -46 -3 -26 -7 -50 -11 -55 -8 -5 3 -9 1 -9 -3 0 -5 -13 -14
-30 -20 -23 -8 -30 -8 -30 0 0 7 -4 6 -9 -2 -5 -8 -18 -16 -29 -17 -11 -2 -32
-9 -48 -15 -16 -7 -35 -11 -41 -10 -7 1 -13 -2 -13 -7 0 -6 -7 -13 -16 -16
-10 -4 -13 -2 -9 7 4 6 1 5 -7 -4 -7 -9 -18 -14 -24 -12 -7 2 -19 -3 -28 -12
-9 -9 -16 -13 -16 -9 0 3 -7 1 -15 -6 -8 -7 -15 -9 -15 -5 0 5 -8 1 -17 -7
-10 -9 -28 -19 -40 -22 -13 -4 -23 -12 -23 -17 0 -6 -4 -8 -9 -5 -4 3 -19 -3
-32 -15 -12 -11 -29 -17 -36 -14 -8 2 -11 0 -8 -5 3 -6 2 -10 -3 -10 -4 0 -18
-9 -30 -20 -12 -11 -25 -20 -29 -21 -5 0 -18 -9 -31 -19 -12 -11 -22 -17 -22
-12 0 4 -11 -6 -25 -22 -14 -16 -25 -26 -25 -22 0 4 -11 -3 -24 -16 -39 -38
-66 -58 -77 -58 -5 0 -8 -3 -6 -7 3 -5 -10 -19 -29 -33 -18 -14 -36 -33 -40
-43 -3 -9 -10 -15 -15 -12 -5 4 -9 -1 -9 -9 0 -9 -7 -16 -15 -16 -8 0 -15 -4
-15 -10 0 -9 -24 -39 -77 -96 -12 -13 -20 -24 -17 -24 5 0 -10 -20 -43 -56
-13 -14 -23 -31 -23 -39 0 -8 -4 -15 -8 -15 -5 0 -14 -12 -20 -26 -7 -14 -16
-23 -21 -20 -5 4 -7 -3 -4 -14 3 -11 0 -20 -6 -20 -6 0 -11 -7 -11 -15 0 -8
-5 -15 -12 -15 -6 0 -8 -3 -5 -6 4 -4 -2 -19 -13 -34 -11 -16 -20 -35 -20 -44
0 -9 -4 -16 -10 -16 -5 0 -10 -7 -10 -15 0 -8 -4 -15 -9 -15 -5 0 -7 -10 -3
-22 3 -14 2 -19 -6 -14 -7 4 -12 1 -12 -9 0 -10 -6 -31 -14 -48 -23 -52 -29
-71 -31 -89 -1 -10 -8 -25 -15 -33 -7 -9 -10 -18 -7 -22 4 -3 2 -12 -4 -20 -6
-7 -8 -13 -5 -13 4 0 2 -8 -3 -19 -6 -10 -12 -33 -13 -50 -1 -17 -5 -31 -8
-31 -3 0 -7 -14 -8 -32 -2 -17 -8 -38 -15 -47 -10 -12 -9 -14 7 -8 17 7 17 6
5 -9 -18 -22 -19 -34 -24 -262 -3 -149 -2 -191 8 -185 7 4 7 0 -2 -10 -11 -14
-11 -17 0 -17 11 0 11 -2 -1 -10 -8 -5 -10 -10 -4 -10 5 0 9 -13 8 -30 -1 -16
3 -30 8 -30 7 0 7 -5 -1 -13 -7 -9 -7 -17 -1 -23 6 -6 11 -27 12 -47 1 -20 4
-37 8 -37 3 0 7 -16 8 -36 2 -20 7 -45 12 -55 6 -10 11 -29 12 -43 1 -15 7
-26 12 -26 5 0 7 -3 3 -6 -6 -6 15 -71 35 -108 10 -19 19 -51 20 -73 1 -7 5
-13 8 -13 9 0 60 -102 60 -118 0 -7 5 -12 10 -12 6 0 10 -7 10 -15 0 -8 5 -15
12 -15 6 0 8 -3 5 -7 -4 -3 4 -21 18 -38 13 -18 26 -38 27 -45 2 -8 10 -21 18
-31 32 -38 40 -48 40 -54 0 -4 6 -12 13 -19 6 -7 21 -25 32 -41 11 -15 30 -37
42 -48 12 -11 20 -24 17 -29 -3 -4 2 -8 10 -8 8 0 18 -9 21 -20 3 -11 13 -20
21 -20 8 0 13 -3 11 -8 -2 -7 38 -52 47 -52 2 0 20 -16 39 -35 20 -20 29 -35
21 -35 -8 0 -14 -5 -14 -11 0 -5 -5 -7 -10 -4 -6 3 -13 -1 -16 -9 -3 -9 -10
-13 -15 -10 -5 3 -12 -2 -15 -10 -3 -9 -12 -16 -20 -16 -8 0 -14 -4 -14 -10 0
-5 -7 -10 -15 -10 -8 0 -15 -5 -15 -11 0 -5 -4 -8 -9 -5 -5 3 -11 -1 -15 -9
-3 -8 -13 -15 -21 -15 -9 0 -14 -4 -10 -9 3 -5 -4 -12 -15 -16 -11 -3 -20 -11
-20 -16 0 -6 -5 -7 -10 -4 -6 4 -10 3 -9 -2 3 -18 -1 -36 -7 -30 -4 4 -16 -3
-26 -16 -11 -12 -32 -36 -47 -53 -16 -16 -36 -42 -46 -57 -9 -15 -22 -24 -28
-20 -5 3 -7 1 -3 -5 3 -6 -1 -18 -10 -26 -8 -9 -12 -16 -7 -16 4 0 3 -4 -3 -8
-6 -4 -19 -22 -28 -40 -9 -18 -21 -30 -26 -27 -6 3 -7 0 -4 -8 3 -8 -2 -21
-10 -30 -8 -8 -12 -17 -9 -21 4 -3 1 -6 -5 -6 -7 0 -11 -3 -11 -7 3 -21 -2
-33 -13 -27 -7 4 -8 3 -4 -4 4 -6 1 -22 -6 -34 -6 -13 -14 -34 -16 -48 -2 -13
-7 -30 -13 -36 -5 -6 -6 -14 -2 -17 3 -4 2 -7 -4 -7 -6 0 -10 -6 -10 -12 1
-25 -16 -99 -24 -104 -5 -3 -7 -9 -4 -14 3 -5 1 -19 -6 -31 -8 -15 -8 -19 0
-15 6 4 11 2 11 -3 0 -6 -4 -11 -10 -11 -16 0 -13 -2719 3 -2739 10 -12 9 -13
-1 -7 -11 7 -12 4 -5 -10 5 -11 9 -26 8 -34 -1 -8 3 -23 7 -33 6 -11 5 -17 -4
-17 -11 0 -11 -2 0 -8 7 -5 14 -23 15 -40 1 -18 6 -32 10 -32 5 0 7 -6 4 -12
-2 -7 2 -25 9 -39 7 -15 10 -29 7 -33 -4 -3 -1 -6 5 -6 7 0 11 -3 11 -7 -3
-17 14 -73 22 -73 5 0 9 -9 9 -20 0 -11 5 -20 11 -20 5 0 8 -4 4 -9 -3 -5 2
-16 10 -24 8 -9 15 -22 15 -30 0 -8 7 -20 15 -27 9 -7 13 -15 10 -18 -3 -3 4
-12 16 -20 13 -9 19 -21 16 -33 -3 -11 -2 -17 3 -14 4 3 13 -2 20 -10 7 -8 10
-15 6 -15 -3 0 8 -13 24 -28 16 -16 27 -32 23 -35 -3 -4 1 -7 11 -7 9 0 15 -4
12 -9 -3 -5 6 -17 19 -27 14 -10 25 -25 25 -33 0 -8 3 -12 6 -8 4 3 24 -11 46
-31 22 -20 48 -45 58 -54 10 -9 21 -14 23 -11 3 3 12 -4 19 -16 7 -12 17 -21
23 -21 6 0 17 -9 25 -19 7 -11 17 -18 22 -15 4 3 17 -4 29 -15 12 -11 26 -18
31 -15 4 3 8 0 8 -5 0 -6 3 -10 8 -9 4 1 19 -6 34 -16 15 -10 31 -15 37 -12 5
3 11 -1 15 -9 3 -8 12 -12 21 -9 8 3 15 1 15 -5 0 -6 12 -11 26 -11 17 0 23
-4 18 -12 -5 -7 -2 -9 7 -6 8 3 25 1 39 -5 14 -5 36 -12 50 -14 13 -2 30 -9
37 -15 10 -8 13 -7 13 3 0 11 2 11 10 -1 5 -8 10 -11 10 -7 0 4 8 3 18 -2 11
-6 24 -6 34 0 10 6 19 6 23 0 3 -5 14 -8 25 -6 11 2 20 0 20 -4 0 -10 52 -7
70 4 9 6 11 4 5 -4 -5 -10 4 -12 37 -10 24 2 49 0 55 -4 6 -4 15 -3 18 3 5 8
11 7 21 -1 8 -6 14 -8 14 -3 0 10 92 10 108 0 6 -3 14 -2 17 4 5 8 11 7 21 -1
8 -6 14 -8 14 -3 0 10 92 10 108 0 6 -3 14 -2 17 4 5 8 11 7 21 -1 8 -6 14 -8
14 -3 0 12 113 11 122 -1 5 -7 8 -7 8 0 0 6 19 9 42 8 133 -5 166 -5 176 1 6
3 13 0 15 -6 3 -7 6 -8 6 -3 1 6 20 9 43 8 133 -5 166 -5 176 1 6 3 13 0 15
-6 3 -7 6 -8 6 -3 1 6 20 9 43 8 133 -5 166 -5 176 1 6 3 13 0 15 -6 3 -7 6
-8 6 -3 1 6 20 9 43 8 133 -5 166 -5 176 1 6 3 13 0 15 -6 3 -7 6 -8 6 -3 1
10 91 11 117 1 8 -3 14 0 14 7 0 9 3 8 9 -1 6 -11 10 -10 15 5 7 17 8 17 22
-1 10 -14 14 -16 14 -5 0 12 2 12 10 -1 5 -8 10 -10 10 -5 0 11 71 12 88 1 6
-3 14 -2 17 4 5 8 11 7 21 -1 8 -6 14 -8 14 -3 0 10 92 10 108 0 6 -3 14 -2
17 4 5 8 11 7 21 -1 8 -6 14 -8 14 -3 0 10 92 10 108 0 6 -3 14 -2 17 4 5 8
11 7 21 -1 8 -6 14 -8 14 -3 0 10 92 10 108 0 6 -3 14 -2 17 4 5 8 11 7 21 -1
8 -6 14 -8 14 -3 0 8 30 9 196 3 34 -1 66 1 72 5 6 3 13 0 15 -6 3 -7 6 -8 6
-3 1 6 20 9 43 8 133 -5 166 -5 176 1 6 3 13 0 15 -6 3 -7 6 -8 6 -3 1 10 80
11 106 1 8 -3 15 -2 15 2 0 6 25 7 186 1 34 -1 66 1 72 5 6 3 13 0 15 -6 3 -7
6 -8 6 -3 1 6 20 9 43 8 133 -5 166 -5 176 1 6 3 13 0 15 -6 3 -7 6 -8 6 -3 1
11 203 11 220 1 5 -4 13 -2 16 4 5 8 11 7 21 -1 8 -6 14 -8 14 -3 0 10 92 10
108 0 6 -3 14 -2 17 4 5 8 11 7 21 -1 8 -6 14 -8 14 -3 0 10 92 10 108 0 6 -3
14 -2 17 4 5 8 11 7 21 -1 8 -6 14 -8 14 -3 0 10 92 10 108 0 6 -3 14 -2 17 4
5 8 11 7 21 -1 8 -6 14 -8 14 -3 0 12 113 11 122 -1 5 -7 8 -7 8 0 0 6 19 9
42 8 133 -5 166 -5 176 1 6 3 13 0 15 -6 3 -7 6 -8 6 -3 1 10 80 11 106 1 8
-3 15 -2 15 2 0 4 50 6 110 5 83 -1 109 1 103 10 -4 7 0 6 10 -2 13 -10 17
-10 17 -1 0 10 3 10 14 1 9 -7 17 -8 20 -2 3 5 14 8 24 7 9 -2 20 2 24 8 5 8
8 7 8 -2 0 -7 5 -10 11 -6 7 4 28 8 47 10 20 2 38 7 41 12 3 4 20 8 38 7 17 0
29 3 26 7 -2 5 8 8 22 8 14 0 24 4 21 9 -3 4 5 8 17 7 12 -1 25 2 28 7 3 5 12
9 20 11 21 3 92 39 107 53 17 16 26 17 16 1 -4 -6 8 0 27 14 19 14 41 28 49
32 33 15 64 36 55 36 -5 1 2 8 18 16 15 8 27 20 27 26 0 6 3 9 6 5 4 -3 30 18
60 47 29 30 55 51 58 48 4 -3 6 -1 6 5 0 15 36 54 44 46 3 -3 6 1 6 11 0 9 7
19 15 22 8 4 12 10 9 15 -3 5 0 9 7 9 7 0 10 3 6 6 -3 3 5 16 18 28 13 12 27
34 31 49 3 16 9 26 12 23 3 -3 12 3 20 15 8 11 11 23 8 26 -3 3 0 11 7 17 14
12 67 127 71 154 2 9 8 18 13 19 6 2 9 13 6 23 -3 11 -1 20 5 20 5 0 9 13 8
29 -1 17 2 28 6 25 7 -5 12 25 9 54 -1 6 3 12 9 12 6 0 9 4 5 9 -3 5 -1 12 5
16 7 4 7 12 0 24 -5 10 -7 21 -4 23 12 12 16 66 18 253 1 117 6 201 11 202 14
3 53 -27 163 -125 14 -12 29 -22 34 -22 5 0 6 -5 3 -10 -3 -5 1 -10 9 -10 8 0
22 -10 30 -22 9 -12 16 -18 16 -13 0 6 5 2 11 -7 5 -10 17 -18 25 -18 8 0 12
-4 9 -10 -3 -5 -1 -10 4 -10 6 0 19 -8 29 -18 38 -36 72 -62 82 -62 6 0 10 -7
10 -15 0 -8 4 -14 8 -13 4 2 20 -10 35 -26 15 -16 27 -25 27 -20 0 5 10 -1 23
-13 47 -47 76 -73 81 -73 6 0 45 -33 92 -78 13 -13 24 -20 24 -17 0 3 15 -9
34 -27 18 -18 40 -38 47 -43 62 -45 137 -114 131 -120 -4 -5 -2 -5 4 -2 6 4
19 -2 29 -13 10 -11 24 -20 32 -20 8 0 11 -4 8 -10 -3 -5 -2 -10 3 -10 5 0 23
-13 40 -30 18 -16 35 -30 38 -30 4 0 22 -16 40 -35 19 -18 34 -31 34 -28 0 3
7 0 15 -7 8 -7 12 -17 8 -23 -3 -5 -1 -7 4 -4 6 4 24 -7 42 -23 17 -17 34 -30
37 -30 6 0 38 -28 90 -78 13 -13 24 -21 24 -18 0 5 43 -31 91 -76 10 -9 29
-24 43 -33 14 -10 23 -21 20 -26 -3 -5 -2 -9 3 -8 14 4 43 -13 38 -21 -3 -5 4
-12 15 -15 12 -4 41 -26 65 -50 24 -23 47 -40 50 -37 3 3 5 1 5 -4 0 -5 14
-18 30 -28 17 -9 27 -22 24 -28 -4 -6 -2 -8 4 -4 5 3 12 3 14 -2 1 -4 18 -19
37 -32 31 -22 34 -22 27 -4 -5 14 -4 16 5 7 6 -6 18 -9 27 -6 11 5 13 3 7 -8
-5 -8 1 -5 13 5 12 11 22 14 22 8 0 -11 46 -1 83 19 10 5 22 7 27 4 6 -4 10
-2 10 4 0 6 7 8 15 5 8 -4 15 -2 15 4 0 5 12 13 27 17 15 3 30 10 33 13 3 4
23 19 45 33 49 32 105 85 105 100 0 5 5 7 10 4 6 -3 10 0 10 8 0 8 7 17 15 21
8 3 15 12 15 21 0 8 5 15 11 15 5 0 8 4 5 9 -3 5 1 12 10 15 8 3 12 10 9 16
-3 5 -1 10 5 10 7 0 10 6 7 14 -3 8 1 17 8 20 8 3 12 12 9 21 -3 8 -2 15 4 15
5 0 13 15 17 33 4 17 10 41 13 52 9 31 13 3887 4 3881 -4 -2 -7 13 -6 34 0 22
-3 37 -8 34 -7 -4 -13 26 -9 49 0 4 -3 7 -9 7 -5 0 -7 7 -4 15 4 8 1 15 -6 15
-6 0 -8 5 -5 10 3 6 1 10 -5 10 -6 0 -8 5 -5 10 3 6 1 10 -5 10 -6 0 -8 5 -5
10 3 6 1 10 -4 10 -6 0 -11 6 -11 13 0 13 -46 71 -97 123 -17 17 -30 35 -27
38 2 3 1 4 -2 1 -4 -2 -21 6 -38 19 -17 13 -39 26 -49 29 -10 4 -15 12 -12 17
4 6 3 10 -2 9 -4 -1 -10 0 -13 1 -10 3 -45 11 -57 12 -7 1 -13 4 -13 8 0 7
-96 32 -132 34 -13 1 -28 5 -35 9 -6 4 -14 3 -17 -2 -3 -5 -14 -7 -25 -4 -11
3 -21 -2 -25 -12 -3 -9 -10 -14 -15 -10 -5 3 -16 -4 -24 -15 -7 -11 -17 -17
-20 -14 -4 4 -9 0 -13 -9 -3 -9 -19 -19 -35 -22 -16 -4 -27 -11 -23 -16 3 -5
-1 -9 -9 -9 -8 0 -20 -7 -27 -15 -7 -9 -15 -14 -17 -11 -2 2 -16 -7 -30 -20
-14 -13 -30 -24 -35 -24 -5 0 -16 -6 -23 -12 -37 -34 -46 -39 -57 -32 -7 4 -8
3 -4 -4 4 -7 1 -12 -7 -12 -8 0 -18 -7 -21 -16 -3 -8 -10 -12 -16 -9 -5 3 -10
2 -10 -3 0 -5 -12 -15 -27 -23 -31 -16 -34 -18 -83 -56 -19 -16 -31 -21 -26
-13 4 8 0 6 -9 -5 -9 -11 -21 -19 -26 -18 -5 2 -9 -2 -9 -8 0 -5 -4 -7 -10 -4
-5 3 -10 -1 -10 -10 0 -9 -4 -14 -9 -11 -5 4 -23 -6 -40 -20 -17 -14 -31 -22
-31 -17 0 4 -5 0 -11 -9 -5 -10 -17 -18 -25 -18 -8 0 -12 -4 -9 -10 3 -5 -1
-10 -10 -10 -9 0 -23 -6 -30 -13 -37 -33 -46 -38 -57 -31 -7 4 -8 3 -4 -4 4
-7 1 -12 -7 -12 -8 0 -18 -7 -21 -16 -3 -8 -10 -12 -16 -9 -5 3 -10 1 -10 -5
0 -6 -4 -9 -9 -6 -5 3 -11 -1 -15 -9 -3 -8 -10 -15 -16 -15 -6 0 -16 -4 -23
-10 -62 -51 -80 -63 -73 -50 4 8 0 6 -9 -5 -9 -11 -21 -19 -26 -18 -5 2 -9 -2
-9 -8 0 -5 -4 -7 -10 -4 -5 3 -10 -1 -10 -10 0 -9 -4 -14 -9 -11 -5 4 -23 -6
-40 -20 -17 -14 -31 -22 -31 -17 0 4 -5 0 -11 -9 -5 -10 -17 -18 -25 -18 -8 0
-12 -4 -9 -10 3 -6 -1 -10 -10 -10 -9 0 -23 -6 -30 -12 -37 -34 -46 -39 -57
-32 -7 4 -8 3 -4 -4 4 -7 1 -12 -7 -12 -8 0 -18 -7 -21 -16 -3 -8 -10 -12 -16
-9 -5 3 -10 2 -10 -3 0 -5 -12 -15 -27 -23 -31 -16 -34 -18 -83 -56 -19 -16
-31 -21 -26 -13 4 8 0 6 -9 -5 -9 -11 -21 -19 -26 -18 -5 2 -9 -2 -9 -8 0 -5
-4 -7 -10 -4 -5 3 -10 -1 -10 -10 0 -9 -4 -14 -9 -11 -12 8 -72 -39 -63 -49 4
-5 2 -5 -4 -2 -11 6 -82 -36 -96 -57 -5 -7 -8 -7 -8 -1 0 6 -5 2 -11 -8 -6 -9
-14 -15 -20 -12 -5 4 -9 1 -9 -5 0 -6 -4 -8 -10 -5 -5 3 -10 -1 -10 -9 0 -9
-6 -13 -13 -10 -9 3 -14 23 -16 52 -2 72 -6 100 -14 108 -4 4 -2 13 4 21 9 10
8 13 -1 13 -7 0 -10 7 -6 15 3 8 2 15 -2 15 -4 0 -8 8 -9 18 -1 18 -10 74 -13
82 -2 3 -2 8 -1 13 0 4 -3 7 -7 7 -4 0 -9 12 -10 28 -1 15 -7 29 -12 30 -6 2
-10 11 -11 20 0 10 -11 39 -24 67 -13 27 -21 53 -19 56 2 4 -3 10 -12 13 -8 3
-12 10 -9 16 3 5 2 10 -3 10 -5 0 -15 14 -22 30 -7 17 -16 30 -21 30 -5 0 -9
7 -9 16 0 9 -5 12 -12 8 -7 -4 -8 -3 -4 4 4 6 -2 20 -14 32 -11 11 -18 20 -15
20 3 0 -4 11 -17 24 -41 42 -56 64 -50 71 4 4 2 5 -3 3 -6 -2 -32 19 -59 45
-45 46 -47 49 -29 62 10 8 26 17 36 20 9 4 14 11 11 17 -4 6 -2 8 4 4 6 -3 17
1 25 9 9 8 20 15 26 15 6 0 16 9 23 20 7 11 18 20 25 20 7 0 26 13 43 30 16
16 30 27 30 25 0 -3 9 3 19 12 11 9 17 21 14 26 -3 6 -1 7 5 3 6 -3 41 23 78
59 37 36 72 65 77 65 5 0 6 8 3 17 -4 10 -4 14 0 10 8 -8 134 123 134 140 0 2
12 15 26 28 15 14 24 25 20 25 -8 0 45 73 57 78 4 2 7 10 7 18 0 8 3 14 8 14
4 0 13 13 20 29 7 16 22 39 32 51 11 13 20 29 20 37 0 7 5 13 11 13 5 0 8 4 4
9 -3 6 5 20 17 32 13 12 16 18 8 14 -12 -7 -12 -5 1 11 19 23 35 57 38 85 0 5
6 7 13 3 6 -4 8 -3 5 3 -3 5 0 21 8 36 7 14 11 28 7 31 -3 3 1 6 8 6 7 0 10 3
7 6 -3 4 -2 15 4 26 6 11 12 29 15 41 2 12 8 23 14 25 6 2 8 7 6 11 -3 4 2 27
11 52 8 24 17 55 19 68 3 14 8 29 12 35 10 16 8 40 -3 48 -6 4 -2 8 8 8 13 0
16 6 13 25 -3 16 1 28 12 35 12 6 13 9 3 10 -9 0 -10 4 -4 13 5 6 8 24 7 40
-2 15 1 25 5 23 7 -5 8 8 11 102 0 23 4 31 13 25 9 -5 9 -3 0 9 -7 8 -10 18
-6 22 9 8 10 296 2 296 -4 0 -6 18 -4 40 1 25 -2 40 -9 40 -6 0 -5 4 3 9 7 5
9 11 4 14 -5 4 -9 16 -8 29 1 13 -3 29 -9 37 -9 12 -8 13 4 6 13 -7 13 -6 2 7
-10 13 -10 17 0 21 10 4 10 6 1 6 -8 1 -13 15 -13 36 0 19 -5 35 -11 35 -8 0
-8 4 0 14 7 8 8 17 3 20 -5 3 -13 25 -17 48 -4 24 -10 52 -13 63 -3 11 -5 30
-6 42 -1 11 -4 19 -8 16 -5 -2 -9 2 -9 9 -2 20 -5 32 -12 51 -17 42 -20 52
-18 60 0 4 -4 18 -11 30 -7 12 -13 25 -14 30 -1 4 -3 10 -4 15 -1 4 -2 10 -1
15 0 4 -4 7 -10 7 -5 0 -7 5 -4 10 3 6 1 10 -5 10 -6 0 -9 4 -6 8 3 5 -4 23
-15 41 -11 18 -17 36 -14 42 4 5 1 9 -5 9 -6 0 -8 5 -5 10 3 6 1 10 -5 10 -10
0 -29 38 -34 67 -1 7 -6 16 -11 20 -4 4 -5 2 -1 -4 4 -7 5 -13 2 -13 -3 0 -15
23 -28 50 -13 28 -26 50 -30 50 -5 0 -8 7 -8 15 0 8 -4 15 -10 15 -5 0 -10 7
-10 15 0 8 -5 15 -11 15 -5 0 -7 5 -4 10 3 6 -1 13 -9 16 -9 3 -16 13 -16 20
0 8 -7 17 -15 20 -8 4 -13 9 -10 13 2 4 -5 14 -16 21 -10 8 -19 18 -19 22 0 5
-15 25 -32 45 -18 19 -32 39 -31 44 2 4 -6 11 -17 14 -11 4 -20 10 -20 15 0
12 -79 90 -91 90 -5 0 -8 3 -7 8 2 8 -56 72 -66 72 -4 0 -21 14 -39 31 -18 17
-41 39 -52 50 -12 10 -26 19 -33 19 -7 0 -12 4 -12 9 0 5 -16 16 -35 25 -19 9
-35 21 -35 25 0 13 -77 51 -85 43 -4 -4 -5 0 -3 8 2 8 -4 15 -12 15 -8 0 -19
5 -25 12 -5 7 -16 13 -24 15 -8 2 -22 11 -32 20 -11 11 -26 15 -36 11 -10 -3
-15 -3 -11 2 10 10 -21 34 -44 35 -10 0 -18 5 -18 10 0 5 -3 9 -7 8 -15 -4
-53 13 -53 23 0 6 -3 8 -8 6 -4 -3 -24 3 -45 13 -20 10 -34 13 -30 7 3 -7 -2
-4 -13 5 -16 14 -34 21 -84 33 -3 1 -13 5 -22 9 -9 4 -25 9 -35 11 -10 2 -19
4 -20 5 -2 2 -6 3 -10 4 -5 1 -12 4 -18 7 -5 4 -18 5 -27 4 -10 -2 -18 0 -18
4 0 8 -16 11 -55 12 -10 0 -25 5 -32 11 -7 5 -19 8 -28 5 -8 -4 -17 -2 -20 4
-4 5 -11 7 -16 3 -5 -3 -15 -2 -22 3 -7 6 -27 9 -44 8 -18 0 -33 4 -33 10 0 5
-5 3 -10 -5 -5 -8 -10 -10 -10 -5 0 6 -17 11 -37 10 -21 0 -47 3 -59 6 -11 4
-27 3 -36 -2 -10 -6 -19 -6 -22 0 -4 5 -33 10 -66 10 -33 0 -65 3 -70 6 -6 3
-10 -2 -11 -12 0 -16 -1 -16 -9 2 -5 11 -9 15 -9 10 -1 -14 -74 -15 -83 -1 -5
7 -8 4 -8 -7z m43 -617 c4 0 6 3 4 8 -3 4 6 8 19 8 13 1 24 -1 24 -5 0 -4 7
-8 15 -8 8 0 12 4 9 9 -3 4 -1 8 5 8 5 0 13 -5 16 -10 4 -7 13 -6 27 1 14 7
23 8 30 1 7 -7 19 -7 34 -2 16 7 24 6 24 -1 0 -7 6 -6 17 2 9 8 14 9 10 2 -5
-8 6 -12 35 -13 52 -1 103 -7 103 -10 0 -3 38 -10 68 -13 9 -1 17 -4 17 -7 0
-3 14 -6 31 -7 17 -1 38 -8 45 -14 8 -7 17 -9 21 -6 3 4 11 2 18 -3 6 -5 22
-12 36 -14 13 -3 26 -5 29 -6 3 -2 8 -2 13 -1 4 0 7 -4 7 -10 0 -6 7 -9 15 -5
9 3 15 0 15 -9 0 -9 6 -12 15 -9 8 3 22 -1 30 -10 9 -9 25 -16 35 -16 10 0 20
-4 22 -9 2 -5 12 -11 23 -13 11 -1 29 -11 39 -20 11 -10 26 -18 33 -18 7 0 13
-4 13 -10 0 -5 7 -10 15 -10 8 0 15 -5 15 -12 0 -6 3 -9 6 -5 6 5 15 0 49 -30
7 -7 16 -13 19 -13 8 0 45 -31 69 -57 11 -12 24 -20 29 -17 4 3 8 -2 8 -10 0
-9 4 -16 8 -16 13 0 101 -88 95 -94 -4 -3 -1 -6 5 -6 17 0 73 -61 66 -71 -3
-5 2 -9 11 -9 9 0 14 -4 11 -9 -3 -5 1 -11 9 -15 8 -3 15 -11 15 -17 0 -6 8
-19 18 -28 21 -20 39 -47 55 -83 6 -16 14 -28 18 -28 4 0 12 -15 20 -32 7 -18
15 -35 19 -38 8 -7 46 -94 42 -98 -1 -1 4 -10 13 -18 8 -9 15 -23 15 -33 0
-10 3 -21 7 -25 4 -3 8 -12 9 -19 2 -7 10 -33 18 -59 8 -25 12 -49 9 -52 -4
-3 -1 -6 6 -6 7 0 11 -7 8 -15 -4 -8 -2 -17 3 -20 5 -3 6 -13 3 -22 -4 -9 -2
-14 3 -11 5 3 10 -11 11 -33 3 -48 10 -90 17 -97 3 -3 0 -12 -7 -20 -10 -13
-9 -14 2 -8 9 6 12 5 9 -5 -3 -8 -1 -26 3 -41 5 -18 4 -28 -3 -28 -7 0 -7 -4
-1 -12 12 -16 9 -250 -4 -298 -5 -19 -8 -47 -8 -62 1 -16 -2 -28 -6 -28 -4 0
-6 -11 -4 -25 1 -14 -2 -25 -7 -25 -6 0 -8 -7 -4 -15 3 -8 1 -15 -4 -15 -5 0
-7 -9 -5 -20 2 -11 -1 -20 -6 -20 -6 0 -8 -4 -4 -9 3 -5 1 -12 -5 -16 -6 -4
-8 -10 -5 -15 3 -4 -4 -28 -14 -53 -11 -25 -17 -48 -14 -51 4 -3 1 -6 -5 -6
-7 0 -12 -3 -11 -7 2 -17 -14 -53 -24 -53 -6 0 -8 -3 -4 -6 3 -4 0 -19 -8 -34
-8 -15 -11 -30 -8 -34 4 -3 1 -6 -4 -6 -6 0 -21 -20 -33 -45 -12 -25 -26 -45
-31 -45 -6 0 -8 -4 -5 -8 3 -5 -6 -20 -19 -34 -13 -14 -21 -28 -18 -32 3 -3
-2 -8 -11 -12 -9 -3 -13 -10 -10 -15 3 -5 -2 -12 -10 -15 -9 -3 -16 -13 -16
-20 0 -8 -7 -17 -15 -20 -8 -4 -15 -12 -15 -20 0 -8 -7 -14 -16 -14 -8 0 -13
-4 -9 -9 3 -6 -8 -20 -24 -32 -17 -12 -28 -26 -25 -31 3 -4 1 -8 -4 -8 -14 0
-52 -36 -45 -44 3 -3 -1 -6 -9 -6 -9 0 -18 -7 -22 -15 -3 -8 -13 -15 -21 -15
-9 0 -14 -3 -12 -7 3 -5 -1 -14 -9 -21 -8 -7 -14 -10 -14 -6 0 4 -10 -4 -23
-18 -12 -13 -29 -22 -37 -20 -8 3 -12 1 -8 -3 8 -8 -91 -81 -104 -77 -5 1 -8
-2 -8 -7 0 -5 -16 -15 -35 -22 -19 -7 -35 -17 -35 -21 0 -4 -7 -8 -15 -8 -8 0
-15 -5 -15 -10 0 -6 -3 -10 -7 -9 -19 3 -52 -14 -46 -24 3 -5 2 -7 -4 -4 -13
8 -84 -14 -77 -24 2 -4 -5 -6 -16 -4 -11 2 -20 -1 -20 -6 0 -6 -4 -8 -9 -4 -5
3 -12 1 -16 -5 -4 -6 -11 -8 -16 -5 -5 4 -9 1 -9 -5 0 -6 -4 -8 -10 -5 -5 3
-18 2 -27 -4 -10 -5 -33 -11 -52 -14 -19 -3 -38 -12 -42 -19 -7 -10 -9 -10 -9
1 0 11 -3 12 -11 4 -6 -6 -18 -9 -27 -6 -9 4 -13 2 -9 -4 3 -5 0 -10 -8 -10
-8 0 -12 5 -8 10 3 5 -3 5 -13 -1 -23 -12 -23 -12 -75 -12 -29 0 -38 -3 -33
-12 6 -10 5 -10 -8 -1 -8 7 -18 10 -21 6 -9 -9 -206 -10 -220 -1 -6 4 -17 2
-24 -4 -8 -6 -13 -6 -13 -1 0 10 -1 11 -72 14 -27 1 -48 6 -48 11 0 6 -7 5
-15 -2 -9 -7 -15 -8 -15 -2 0 5 -13 9 -30 8 -16 -1 -30 2 -30 7 0 4 -4 5 -10
2 -5 -3 -10 -1 -10 6 0 7 -3 9 -7 6 -3 -4 -13 -1 -21 6 -13 9 -14 9 -8 0 5 -9
2 -11 -8 -7 -9 3 -16 10 -16 14 0 5 -11 7 -24 4 -14 -2 -28 0 -31 6 -4 6 -11
8 -16 5 -5 -4 -9 -1 -9 4 0 6 -11 11 -25 11 -14 0 -25 5 -25 11 0 5 -4 8 -9 4
-5 -3 -12 -1 -16 5 -4 6 -11 8 -16 5 -5 -4 -9 -1 -9 5 0 7 -6 10 -14 7 -8 -3
-16 -2 -18 4 -2 5 -13 11 -26 14 -25 4 -64 29 -57 36 2 3 -6 6 -18 6 -12 1
-23 7 -25 13 -2 5 -9 10 -16 10 -13 0 -99 59 -104 72 -2 5 -10 8 -18 8 -8 0
-24 11 -36 25 -11 13 -25 22 -29 20 -4 -3 -10 4 -14 15 -3 11 -13 20 -20 20
-8 0 -18 6 -22 13 -4 7 -21 23 -37 35 -16 12 -25 22 -21 22 5 0 -5 11 -21 25
-16 14 -33 25 -37 25 -5 0 -5 5 -2 10 3 6 1 10 -4 10 -6 0 -11 7 -11 16 0 8
-3 13 -7 11 -5 -3 -14 1 -21 9 -7 8 -9 14 -5 14 4 1 -3 10 -16 20 -13 11 -20
20 -17 20 4 0 2 6 -4 13 -32 37 -90 122 -90 132 0 6 -9 21 -21 33 -11 12 -17
27 -14 32 3 6 1 10 -4 10 -6 0 -11 7 -11 15 0 8 -5 15 -11 15 -6 0 -9 7 -5 15
3 8 2 15 -2 15 -9 0 -37 68 -41 101 0 5 -5 8 -10 5 -4 -3 -7 6 -5 19 1 14 -2
25 -6 25 -5 0 -15 27 -22 60 -6 33 -15 60 -19 60 -5 0 -6 9 -4 20 2 11 1 20
-3 20 -4 0 -7 10 -8 23 0 12 -5 45 -9 72 -5 28 -9 76 -9 107 -1 32 -4 58 -8
58 -4 0 -6 9 -5 20 1 11 6 20 12 20 6 0 7 3 0 8 -16 11 -17 33 -3 50 7 9 8 13
2 9 -15 -9 -15 43 0 62 8 12 8 13 -1 7 -16 -9 -16 -1 -2 26 8 15 8 19 0 14 -8
-5 -8 0 -3 16 5 13 8 38 7 56 0 17 2 32 5 32 5 0 9 23 11 73 0 9 4 17 8 17 5
0 7 13 6 30 -1 16 1 27 6 24 5 -3 9 5 9 18 0 13 12 55 26 93 14 39 27 79 30
90 2 11 8 21 14 23 5 2 10 10 10 18 0 16 66 142 88 167 8 9 12 17 8 17 -4 0 2
10 13 22 11 11 18 25 15 30 -3 4 2 8 11 8 9 0 13 5 10 10 -3 6 -1 10 4 10 6 0
10 3 8 8 -2 8 8 21 60 77 18 19 31 35 28 35 -5 0 102 107 153 152 23 20 42 35
42 32 0 -2 8 4 18 14 10 9 28 23 40 31 11 8 18 19 15 24 -3 6 -1 7 5 3 6 -4
20 2 32 14 11 11 22 20 25 20 13 1 41 15 57 29 10 9 22 17 26 17 27 5 52 18
52 26 0 6 7 8 15 4 8 -3 15 -1 15 4 0 6 7 10 15 10 8 0 15 5 15 11 0 5 4 8 8
5 5 -3 23 4 41 15 18 11 29 14 25 7 -5 -10 -4 -11 7 0 7 6 21 12 32 12 10 0
16 4 13 9 -4 5 5 8 20 6 17 -2 24 2 20 11 -3 8 0 11 9 8 8 -3 43 1 77 10 35 8
74 18 88 20 14 2 25 5 25 6 0 1 27 4 60 6 33 3 62 10 64 15 2 7 7 7 14 0 6 -6
15 -11 20 -11z m-3971 -614 c19 12 131 12 146 1 7 -6 12 -6 12 0 0 10 47 9 57
-1 3 -3 14 -1 24 4 11 7 19 6 21 0 2 -6 29 -12 60 -13 31 -1 54 -5 51 -9 -4
-7 22 -12 30 -5 2 1 10 -3 18 -9 8 -5 23 -10 34 -10 11 1 23 -3 26 -7 3 -5 15
-10 25 -12 10 -2 20 -4 22 -4 1 -1 5 -1 10 -2 4 -1 16 -6 27 -12 11 -6 22 -12
25 -13 17 -4 46 -19 51 -26 3 -5 15 -10 27 -11 12 0 24 -7 27 -15 3 -7 9 -10
15 -7 5 3 10 1 10 -4 0 -6 7 -11 16 -11 8 0 12 -4 9 -10 -3 -5 2 -10 12 -10
18 0 56 -25 95 -62 10 -10 22 -18 27 -18 5 0 12 -9 16 -20 3 -11 10 -19 14
-17 9 2 111 -98 153 -150 15 -20 25 -40 21 -46 -3 -5 -2 -7 4 -4 5 4 16 -5 23
-18 7 -14 17 -25 22 -25 5 0 7 -4 3 -9 -3 -6 3 -14 12 -20 14 -8 14 -10 3 -11
-9 0 -7 -5 8 -16 13 -9 21 -22 18 -30 -3 -8 1 -14 10 -14 9 0 14 -7 12 -17 -2
-10 2 -17 9 -16 7 2 10 -4 7 -12 -3 -8 1 -27 9 -42 31 -60 39 -81 33 -91 -4
-6 2 -15 11 -21 10 -6 14 -11 9 -11 -5 0 -3 -7 4 -15 10 -12 10 -15 0 -15 -10
0 -10 -3 0 -15 7 -8 9 -15 5 -15 -4 0 -2 -7 5 -15 6 -8 9 -19 5 -25 -3 -5 -2
-10 2 -10 5 0 8 -18 7 -40 0 -22 2 -40 6 -40 6 0 12 -61 13 -135 0 -16 5 -33
11 -37 7 -5 7 -8 1 -8 -7 0 -12 -28 -13 -67 -1 -40 -7 -70 -15 -75 -9 -6 -9
-8 1 -8 7 0 10 -5 6 -11 -3 -6 -8 -25 -9 -42 -4 -54 -16 -87 -29 -80 -7 4 -7
2 1 -7 8 -9 9 -19 2 -32 -5 -10 -7 -22 -4 -27 3 -5 0 -11 -5 -13 -6 -2 -12
-13 -13 -26 0 -12 -5 -22 -10 -22 -5 0 -7 -7 -3 -15 3 -8 1 -15 -4 -15 -6 0
-10 -9 -10 -20 0 -11 -5 -20 -10 -20 -6 0 -9 -3 -9 -7 4 -22 -2 -33 -13 -27
-7 4 -10 4 -6 -1 4 -4 2 -15 -5 -23 -10 -13 -9 -14 3 -7 13 8 13 7 0 -11 -8
-10 -17 -21 -20 -24 -3 -3 -14 -22 -24 -42 -10 -21 -23 -35 -29 -31 -6 3 -7 1
-3 -5 3 -6 -2 -19 -12 -29 -10 -10 -22 -26 -25 -36 -4 -11 -12 -15 -18 -11 -8
5 -9 3 -4 -6 5 -8 -5 -24 -29 -46 -20 -18 -36 -36 -36 -39 0 -3 -2 -5 -5 -5
-3 1 -20 -15 -37 -34 -17 -20 -35 -33 -39 -30 -5 3 -6 -3 -2 -12 4 -10 2 -15
-4 -11 -5 3 -17 -3 -26 -14 -10 -11 -23 -17 -30 -13 -6 4 -9 4 -5 0 8 -10 -14
-36 -24 -29 -5 2 -8 0 -8 -6 0 -6 -15 -18 -32 -27 -18 -9 -35 -20 -38 -23 -3
-4 -20 -13 -37 -20 -18 -7 -31 -17 -28 -21 3 -5 -3 -7 -12 -6 -10 2 -20 0 -23
-3 -9 -11 -110 -59 -104 -50 3 5 -2 6 -10 3 -9 -3 -16 -10 -16 -14 0 -5 -11
-7 -25 -4 -16 3 -27 -1 -31 -9 -3 -8 -19 -13 -39 -12 -18 0 -31 -3 -29 -7 4
-7 -18 -10 -42 -7 -4 0 -11 -5 -15 -13 -5 -7 -9 -8 -9 -2 0 11 -28 12 -45 2
-6 -3 -23 -6 -39 -6 -15 0 -32 -6 -37 -13 -6 -9 -9 -10 -9 -2 0 14 -40 13 -40
-2 0 -5 -4 -4 -9 4 -7 10 -13 11 -30 2 -17 -10 -22 -9 -27 4 -3 8 -10 12 -15
9 -5 -3 -6 -11 -2 -17 4 -7 -1 -6 -10 2 -10 8 -20 11 -24 8 -3 -4 -12 -2 -20
4 -9 9 -13 8 -13 0 0 -8 -6 -9 -17 -4 -10 5 -33 8 -50 8 -18 0 -33 2 -33 6 0
4 -14 6 -31 5 -17 -1 -42 4 -56 11 -14 7 -28 11 -31 8 -3 -3 -11 0 -18 5 -6 6
-16 10 -20 9 -9 -2 -30 5 -69 22 -11 4 -29 10 -40 11 -11 2 -23 8 -27 13 -4 6
-11 10 -15 10 -4 1 -18 6 -29 13 -12 6 -24 8 -28 5 -3 -3 -6 -1 -6 6 0 9 -47
35 -58 31 -1 0 -12 9 -24 20 -12 11 -26 20 -30 20 -5 0 -6 4 -3 10 3 6 -1 7
-9 4 -9 -3 -16 -1 -16 6 0 6 -4 9 -9 5 -5 -3 -12 4 -16 15 -4 11 -11 18 -16
15 -5 -4 -9 -1 -9 5 0 6 -7 13 -16 17 -26 10 -204 193 -187 193 3 0 -4 8 -15
19 -12 10 -22 24 -22 30 0 7 -5 9 -12 5 -6 -4 -8 -3 -4 4 3 6 -1 18 -10 26 -8
9 -13 16 -9 16 4 0 -1 7 -9 16 -9 8 -16 22 -16 30 0 8 -4 14 -10 14 -5 0 -10
9 -10 21 0 13 -4 18 -12 13 -7 -5 -9 -2 -5 9 3 8 0 21 -8 27 -8 6 -11 19 -8
27 5 12 3 14 -7 8 -10 -6 -12 -4 -7 8 3 10 3 17 -1 17 -8 0 -38 90 -34 103 1
4 -1 7 -5 7 -5 0 -9 14 -10 32 -1 17 -7 36 -12 41 -5 5 -7 16 -4 25 5 11 3 13
-8 7 -12 -8 -12 -6 0 8 7 9 9 17 4 17 -5 0 -9 21 -8 46 0 25 -2 47 -5 49 -4 2
-7 40 -8 85 0 44 -4 85 -7 90 -3 6 -2 10 4 10 5 0 8 16 7 35 -2 19 -1 35 3 35
3 0 5 15 5 32 -1 18 1 37 4 43 5 8 13 52 15 83 0 6 4 12 9 12 5 0 6 9 3 20 -4
13 -2 20 6 20 7 0 10 3 6 6 -3 3 3 29 14 57 11 29 21 56 22 62 1 5 8 16 15 23
6 7 12 22 12 33 0 10 5 19 10 19 6 0 10 9 10 20 0 11 5 20 11 20 5 0 7 5 4 10
-3 6 -1 10 4 10 6 0 11 7 11 15 0 8 5 15 10 15 6 0 10 7 10 16 0 8 5 12 11 9
6 -4 9 0 7 11 -2 12 2 18 10 16 8 -1 11 2 8 7 -4 5 4 19 16 30 12 12 18 21 13
21 -4 0 4 11 19 25 15 14 24 25 20 25 -4 0 3 9 16 20 13 11 27 20 32 20 5 0 7
3 5 8 -3 4 1 13 9 20 8 7 14 11 14 9 0 -3 20 14 44 37 65 62 95 86 106 86 6 0
10 4 10 9 0 5 14 14 30 20 17 5 30 15 30 21 0 6 5 8 10 5 6 -3 10 -2 10 3 0 6
11 13 25 16 14 4 25 11 25 17 0 6 5 7 10 4 6 -3 10 -1 10 5 0 6 4 9 9 5 5 -3
12 -1 16 5 3 5 15 10 26 10 10 0 19 5 19 11 0 5 5 7 10 4 6 -3 10 -1 10 5 0 6
4 9 9 6 5 -3 30 3 55 15 25 11 50 18 55 14 5 -3 11 -1 13 5 2 6 22 11 44 13
23 1 40 5 38 9 -3 4 18 6 45 5 27 -1 49 0 49 3 -1 18 4 21 17 10 8 -6 20 -8
27 -4z m1942 -1092 c0 -27 5 -53 10 -57 8 -6 7 -10 -3 -14 -9 -4 -10 -8 -2
-12 6 -4 12 -30 13 -58 1 -28 5 -50 8 -48 4 2 6 -16 6 -40 -1 -23 2 -41 7 -38
7 4 8 0 11 -36 0 -11 4 -22 8 -26 4 -4 4 -13 1 -21 -3 -8 -1 -14 4 -14 5 0 9
-8 10 -17 3 -41 8 -63 13 -63 7 0 35 -101 32 -112 -1 -5 3 -8 9 -8 6 0 9 -6 6
-14 -3 -8 1 -17 9 -20 9 -3 13 -10 9 -16 -6 -9 8 -40 35 -74 8 -11 10 -16 3
-12 -13 7 46 -115 60 -125 4 -3 9 -15 10 -27 0 -11 4 -19 8 -16 6 3 19 -18 18
-31 0 -3 7 -13 16 -21 8 -9 15 -22 15 -30 0 -8 5 -14 10 -14 6 0 10 -7 10 -15
0 -8 5 -15 10 -15 6 0 10 -5 10 -10 0 -6 9 -20 20 -32 11 -12 20 -28 20 -35 0
-8 5 -11 10 -8 6 3 10 0 10 -7 0 -7 16 -30 35 -50 18 -21 32 -38 30 -38 -2 0
6 -11 18 -23 12 -13 40 -45 62 -70 22 -26 46 -47 52 -47 17 0 12 -23 -7 -31
-8 -4 -21 -2 -27 3 -9 7 -13 6 -13 -3 0 -10 -3 -10 -12 -1 -7 7 -17 8 -30 1
-12 -7 -18 -6 -18 1 0 6 -5 8 -12 4 -14 -9 -68 -11 -68 -3 0 3 -7 6 -15 6 -8
0 -15 -5 -15 -10 0 -5 -6 -4 -13 2 -8 6 -16 8 -20 5 -10 -11 -57 -11 -57 -1 0
8 -3 8 -11 0 -7 -7 -21 -8 -40 -3 -16 5 -29 5 -29 2 0 -9 -69 -7 -77 2 -3 3
-14 1 -24 -5 -13 -7 -19 -6 -19 1 0 6 -5 8 -12 4 -16 -10 -68 -11 -68 -1 0 5
-5 5 -12 1 -16 -10 -68 -11 -68 -1 0 5 -5 5 -12 1 -16 -10 -68 -11 -68 -1 0 5
-5 5 -12 1 -14 -9 -68 -11 -68 -3 0 3 -7 6 -15 6 -8 0 -15 -5 -15 -10 0 -5 -6
-4 -13 2 -8 6 -16 8 -20 5 -10 -10 -57 -11 -57 -1 0 5 -6 4 -14 -2 -9 -7 -17
-8 -20 -2 -7 10 -25 9 -43 -2 -7 -5 -13 -4 -13 2 0 7 -8 7 -23 2 -18 -7 -24
-6 -24 5 0 8 4 14 9 14 5 0 7 4 4 9 -3 5 6 17 19 27 14 10 25 23 25 27 0 5 6
14 13 21 28 30 56 66 51 66 -3 0 1 6 8 14 22 23 41 54 37 60 -2 3 6 13 19 21
12 9 20 20 17 25 -3 5 3 13 12 19 10 6 15 11 10 11 -4 0 4 18 18 40 14 22 25
44 25 50 0 5 4 10 10 10 5 0 6 7 3 17 -4 11 -3 14 6 9 8 -5 12 -3 10 5 -3 28
1 40 13 33 6 -4 8 -3 5 3 -3 5 0 21 8 36 7 14 11 28 7 31 -3 3 0 6 7 6 7 0 11
8 9 18 -1 9 2 24 7 32 15 24 45 123 39 132 -3 4 0 8 5 8 6 0 11 10 11 23 0 13
6 29 13 36 10 11 9 12 -1 6 -12 -6 -12 -3 -2 15 7 12 10 33 8 45 -3 14 -1 22
6 19 7 -3 12 11 12 33 1 21 5 65 9 98 4 33 7 67 8 75 0 8 5 21 11 29 8 11 8
13 0 8 -7 -4 -14 0 -18 8 -3 8 -1 17 5 21 6 3 8 12 5 20 -3 7 -1 16 5 20 6 3
6 10 1 17 -6 7 -9 23 -8 37 1 14 0 29 -2 34 -10 18 -7 86 3 86 5 0 3 5 -5 11
-13 9 -13 10 0 7 10 -3 14 -19 14 -54z m-2554 -1964 c0 13 1 13 10 0 6 -10 10
-11 10 -3 0 17 5040 19 5071 3 13 -8 19 -7 19 0 0 7 6 7 18 1 22 -12 52 -23
77 -28 10 -2 23 -9 27 -16 4 -6 8 -8 8 -3 0 5 6 3 13 -3 8 -6 17 -8 20 -4 4 3
7 1 7 -5 0 -7 7 -12 15 -12 8 0 15 -4 15 -10 0 -5 7 -10 15 -10 8 0 15 -4 15
-10 0 -5 6 -10 13 -10 7 0 19 -9 27 -20 8 -11 21 -20 29 -20 8 0 12 -3 8 -6
-3 -3 9 -21 26 -39 47 -50 55 -61 74 -99 9 -20 21 -36 25 -36 5 0 6 -4 3 -10
-3 -5 -1 -10 6 -10 7 0 10 -3 7 -6 -4 -3 0 -21 8 -40 8 -19 12 -34 9 -34 -4 0
-3 -6 2 -12 9 -15 13 -35 15 -65 0 -13 5 -23 10 -23 6 0 5 -7 -2 -15 -10 -12
-10 -15 1 -16 10 0 11 -2 1 -6 -6 -2 -9 -10 -5 -16 12 -19 10 -131 -1 -139 -7
-5 -7 -8 2 -8 6 0 12 -5 12 -11 0 -5 -5 -7 -12 -3 -7 5 -8 3 -2 -7 12 -19 11
-82 -1 -91 -6 -5 -5 -8 3 -8 6 0 12 -5 12 -11 0 -5 -5 -7 -12 -3 -7 5 -8 3 -2
-7 12 -19 12 -50 1 -73 -6 -12 -6 -16 2 -12 11 7 8 -54 -4 -75 -5 -7 -4 -10 2
-6 12 7 11 -112 -1 -132 -6 -9 -5 -12 1 -8 6 4 10 -7 9 -28 0 -19 -5 -35 -11
-35 -5 0 -4 -4 4 -9 9 -6 11 -15 6 -27 -5 -11 -7 -23 -5 -29 8 -27 5 -95 -4
-95 -8 0 -8 -3 -1 -8 13 -9 13 -62 1 -81 -6 -9 -5 -12 1 -8 6 4 10 -7 9 -28 0
-19 -5 -35 -11 -35 -5 0 -4 -4 4 -9 9 -6 11 -15 6 -27 -5 -11 -7 -23 -5 -29 8
-27 5 -95 -4 -95 -7 0 -8 -3 -1 -8 14 -10 15 -105 1 -114 -8 -5 -7 -8 2 -8 6
0 12 -5 12 -11 0 -5 -5 -7 -12 -3 -7 5 -8 3 -2 -7 12 -19 11 -82 -1 -91 -6 -5
-5 -8 3 -8 6 0 12 -5 12 -11 0 -5 -5 -7 -12 -3 -7 5 -8 3 -2 -7 12 -19 12 -50
1 -73 -6 -12 -6 -16 2 -12 11 7 8 -54 -4 -75 -5 -7 -4 -10 1 -6 13 8 12 -156
-1 -165 -6 -5 -5 -8 3 -8 6 0 12 -5 12 -11 0 -5 -5 -7 -12 -3 -7 5 -8 3 -2 -7
12 -19 11 -82 -1 -91 -6 -5 -5 -8 3 -8 6 0 12 -5 12 -11 0 -5 -5 -7 -12 -3 -7
5 -8 3 -2 -7 12 -19 12 -50 1 -73 -6 -12 -6 -16 2 -12 11 7 8 -54 -4 -75 -5
-7 -4 -10 1 -6 13 8 12 -156 -1 -165 -6 -5 -5 -8 3 -8 6 0 12 -5 12 -11 0 -5
-5 -7 -12 -3 -7 5 -8 3 -2 -7 12 -19 11 -82 -1 -91 -6 -5 -5 -8 3 -8 6 0 12
-5 12 -11 0 -5 -5 -7 -12 -3 -7 5 -8 3 -2 -7 13 -21 13 -119 0 -112 -6 4 -5
-1 3 -10 10 -13 10 -17 1 -17 -10 0 -10 -3 0 -15 7 -8 8 -15 3 -15 -5 0 -10
-11 -11 -25 -3 -38 -6 -49 -17 -57 -6 -5 -6 -8 1 -8 7 0 4 -15 -8 -39 -10 -21
-20 -48 -21 -59 0 -11 -5 -18 -9 -16 -4 3 -8 -2 -8 -10 0 -9 -5 -16 -11 -16
-6 0 -9 -7 -5 -15 3 -9 0 -15 -10 -15 -8 0 -13 -4 -10 -9 3 -4 -6 -18 -19 -31
-13 -13 -22 -27 -19 -32 3 -5 2 -7 -3 -6 -5 2 -28 -16 -52 -40 -24 -23 -48
-44 -55 -45 -6 -1 -18 -10 -27 -19 -9 -10 -19 -15 -23 -11 -3 3 -6 1 -6 -6 0
-8 -7 -11 -15 -7 -9 3 -15 0 -15 -9 0 -8 -8 -12 -20 -10 -11 2 -20 -1 -20 -6
0 -6 -4 -7 -10 -4 -6 3 -10 1 -10 -4 0 -6 -3 -10 -7 -9 -20 5 -73 -15 -67 -24
5 -7 2 -8 -7 -2 -18 11 -59 6 -78 -9 -12 -9 -13 -9 -7 1 8 14 -19 12 -43 -2
-10 -6 -12 -5 -7 2 9 16 -7 15 -22 0 -9 -9 -12 -9 -12 1 0 11 -3 11 -17 0 -11
-10 -14 -10 -9 -1 9 15 -6 16 -22 0 -9 -9 -12 -9 -12 1 0 11 -3 11 -17 0 -11
-10 -14 -10 -9 -1 4 6 3 12 -3 12 -5 0 -13 -5 -17 -11 -4 -8 -9 -7 -15 2 -8
12 -11 11 -19 -1 -8 -12 -10 -12 -10 -1 0 11 -3 11 -15 1 -12 -10 -15 -10 -15
0 0 9 -4 9 -17 -1 -11 -10 -14 -10 -9 -1 4 6 3 12 -3 12 -5 0 -13 -5 -16 -10
-5 -8 -11 -7 -21 1 -11 9 -14 8 -15 -2 0 -11 -2 -11 -6 -1 -4 10 -8 10 -19 1
-11 -9 -14 -9 -14 1 0 9 -4 9 -17 -1 -11 -10 -14 -10 -9 -1 4 6 3 12 -3 12 -5
0 -13 -5 -17 -11 -4 -8 -9 -7 -15 2 -8 12 -11 11 -19 -1 -8 -12 -10 -12 -10
-1 0 11 -3 11 -15 1 -12 -10 -15 -10 -15 0 0 9 -4 9 -17 -1 -11 -10 -14 -10
-9 -2 4 7 3 13 -3 13 -5 0 -13 -5 -16 -10 -5 -8 -11 -7 -21 1 -11 9 -14 8 -15
-2 0 -11 -2 -11 -6 -1 -4 10 -8 10 -19 1 -11 -9 -14 -9 -14 1 0 9 -4 9 -17 -1
-11 -10 -14 -10 -9 -1 4 6 3 12 -3 12 -5 0 -13 -5 -17 -11 -4 -8 -9 -7 -15 2
-8 12 -11 11 -19 -1 -8 -12 -10 -12 -10 -1 0 11 -3 11 -15 1 -12 -10 -15 -10
-15 0 0 9 -4 9 -17 -1 -11 -10 -14 -10 -9 -1 4 6 3 12 -3 12 -5 0 -13 -5 -16
-10 -5 -8 -11 -7 -21 1 -11 9 -14 8 -15 -2 0 -11 -2 -11 -6 -1 -4 10 -8 10
-19 1 -11 -9 -14 -9 -14 1 0 9 -4 9 -17 -1 -11 -10 -14 -10 -9 -1 4 6 3 12 -3
12 -5 0 -13 -5 -17 -11 -4 -8 -9 -7 -15 2 -8 12 -11 11 -19 -1 -8 -12 -10 -12
-10 -1 0 11 -3 11 -15 1 -12 -10 -15 -10 -15 0 0 9 -4 9 -17 -1 -11 -10 -14
-10 -9 -1 4 6 3 12 -3 12 -5 0 -13 -5 -16 -10 -5 -8 -11 -7 -21 1 -11 9 -14 8
-15 -2 0 -11 -2 -11 -6 -1 -4 10 -8 10 -19 1 -11 -9 -14 -9 -14 1 0 9 -4 9
-17 -1 -11 -10 -14 -10 -9 -1 4 6 3 12 -3 12 -5 0 -13 -5 -17 -11 -4 -8 -9 -7
-14 2 -7 10 -12 10 -23 1 -7 -7 -16 -9 -19 -6 -3 2 -18 7 -33 10 -20 3 -25 1
-19 -8 6 -10 5 -10 -8 0 -11 9 -18 10 -23 2 -4 -7 -12 -7 -25 0 -25 13 -33 13
-24 -2 6 -10 4 -10 -8 0 -11 9 -18 10 -23 2 -4 -7 -12 -7 -25 0 -25 13 -33 13
-24 -2 6 -10 4 -10 -8 0 -11 9 -18 10 -23 2 -4 -7 -12 -7 -25 0 -25 13 -33 13
-24 -2 6 -10 4 -10 -8 0 -11 9 -18 10 -23 2 -4 -7 -12 -7 -25 0 -25 13 -33 13
-24 -2 6 -10 4 -10 -8 0 -11 9 -18 10 -23 2 -4 -7 -12 -7 -25 0 -25 13 -33 13
-24 -2 6 -10 4 -10 -8 0 -11 9 -18 10 -23 2 -4 -7 -12 -7 -25 0 -25 13 -33 13
-24 -2 6 -10 4 -10 -8 0 -11 9 -18 10 -23 2 -4 -7 -12 -7 -25 0 -25 13 -33 13
-24 -2 6 -10 4 -10 -8 0 -11 9 -18 10 -23 2 -4 -7 -12 -7 -25 0 -25 13 -33 13
-24 -2 6 -10 4 -10 -8 0 -11 9 -18 10 -23 2 -4 -7 -12 -7 -25 0 -25 13 -33 13
-24 -2 6 -10 4 -10 -8 0 -11 9 -18 10 -23 2 -4 -7 -12 -7 -25 0 -25 13 -33 13
-24 -2 6 -10 4 -10 -8 0 -11 9 -18 10 -23 2 -4 -7 -12 -7 -25 0 -25 13 -33 13
-24 -3 6 -9 4 -9 -8 1 -11 9 -18 10 -23 2 -4 -7 -12 -7 -25 0 -25 13 -33 13
-24 -2 6 -10 4 -10 -8 0 -11 9 -18 10 -23 2 -4 -7 -12 -7 -25 0 -25 13 -33 13
-24 -2 6 -10 4 -10 -8 0 -11 9 -18 10 -23 2 -4 -7 -12 -7 -25 0 -25 13 -33 13
-24 -2 6 -10 4 -10 -8 0 -11 9 -18 10 -23 2 -4 -7 -12 -7 -25 0 -25 13 -33 13
-24 -2 6 -10 5 -10 -8 -1 -8 7 -18 10 -21 6 -10 -9 -58 -10 -63 -1 -3 4 -10 8
-15 8 -6 0 -8 -3 -5 -8 6 -9 -61 -9 -70 1 -10 10 -26 9 -20 -1 2 -4 -4 -8 -14
-8 -10 0 -16 4 -14 8 6 10 -10 11 -20 1 -10 -10 -46 -11 -52 -1 -3 4 -10 8
-15 8 -6 0 -7 -6 -3 -12 5 -9 2 -9 -9 1 -14 11 -17 11 -18 0 0 -10 -2 -11 -6
-1 -2 6 -10 9 -16 5 -17 -10 -47 -11 -53 -1 -3 4 -10 8 -15 8 -6 0 -8 -4 -5
-8 2 -4 -4 -8 -14 -8 -10 0 -16 4 -14 8 6 10 -10 11 -20 1 -10 -10 -46 -11
-52 -1 -3 4 -10 8 -15 8 -6 0 -7 -6 -3 -12 5 -9 2 -9 -9 1 -14 11 -17 11 -18
0 0 -10 -2 -11 -6 -1 -2 6 -10 9 -16 5 -17 -10 -47 -11 -53 -1 -3 4 -10 8 -15
8 -6 0 -8 -4 -5 -8 2 -4 -4 -8 -14 -8 -10 0 -16 4 -14 8 6 10 -10 11 -20 1
-10 -10 -46 -11 -52 -1 -3 4 -10 8 -15 8 -6 0 -7 -6 -3 -12 5 -9 2 -9 -9 1
-14 11 -17 11 -18 0 0 -10 -2 -11 -6 -1 -2 6 -10 9 -16 5 -17 -10 -47 -11 -53
-1 -3 4 -10 8 -15 8 -6 0 -8 -4 -5 -8 2 -4 -4 -8 -14 -8 -10 0 -16 4 -14 8 6
10 -10 11 -20 1 -10 -10 -46 -11 -52 -1 -3 4 -10 8 -15 8 -6 0 -7 -6 -3 -12 5
-9 2 -9 -9 1 -14 11 -17 11 -18 0 0 -10 -2 -11 -6 -1 -2 6 -10 9 -16 5 -17
-10 -47 -11 -53 -1 -3 4 -10 8 -15 8 -6 0 -8 -4 -5 -8 2 -4 -4 -8 -14 -8 -10
0 -16 4 -14 8 6 10 -10 11 -20 1 -10 -10 -46 -11 -52 -1 -3 4 -10 8 -15 8 -6
0 -7 -6 -3 -12 5 -9 2 -9 -9 1 -14 11 -17 11 -18 0 0 -10 -2 -11 -6 -1 -2 6
-10 9 -16 5 -17 -10 -47 -11 -53 -1 -3 4 -10 8 -15 8 -6 0 -8 -4 -5 -8 2 -4
-4 -8 -14 -8 -10 0 -16 4 -14 8 6 10 -10 11 -20 1 -10 -10 -46 -11 -52 -1 -3
4 -10 8 -15 8 -6 0 -7 -6 -3 -12 5 -9 2 -9 -9 1 -14 11 -17 11 -18 0 0 -10 -2
-11 -6 -1 -2 6 -10 9 -16 5 -17 -10 -47 -11 -53 -1 -3 4 -10 8 -15 8 -6 0 -8
-4 -5 -8 2 -4 -4 -8 -14 -8 -10 0 -16 4 -14 8 6 10 -10 11 -20 1 -10 -10 -46
-11 -52 -1 -3 4 -10 8 -15 8 -6 0 -7 -6 -3 -13 5 -8 2 -8 -9 2 -14 11 -17 11
-18 0 0 -10 -2 -11 -6 -1 -2 6 -10 9 -16 5 -17 -10 -47 -11 -53 -1 -3 4 -10 8
-15 8 -6 0 -8 -4 -5 -8 2 -4 -4 -8 -14 -8 -10 0 -16 4 -14 8 6 10 -10 11 -20
1 -10 -10 -46 -11 -52 -1 -3 4 -10 8 -15 8 -6 0 -7 -6 -3 -12 5 -9 2 -9 -9 1
-14 11 -17 11 -18 0 0 -10 -2 -11 -6 -1 -2 6 -10 9 -16 5 -17 -10 -47 -11 -53
-1 -3 4 -10 8 -15 8 -6 0 -8 -4 -5 -8 2 -4 -4 -8 -14 -8 -10 0 -16 4 -14 8 6
10 -10 11 -20 1 -10 -10 -46 -11 -52 -1 -3 4 -10 8 -15 8 -6 0 -7 -6 -3 -12 5
-9 2 -9 -9 1 -14 11 -17 11 -18 0 0 -10 -2 -11 -6 -1 -2 6 -10 9 -16 5 -17
-10 -47 -11 -53 -1 -3 4 -10 8 -15 8 -6 0 -8 -4 -5 -8 2 -4 -4 -8 -14 -8 -10
0 -16 4 -14 8 3 4 1 8 -5 8 -5 0 -12 -4 -15 -8 -6 -11 -36 -9 -55 2 -8 5 -17
3 -22 -5 -5 -8 -9 -9 -9 -3 0 6 -21 12 -47 13 -25 0 -53 7 -62 14 -12 9 -13 9
-7 -1 4 -6 2 -12 -3 -12 -6 0 -11 5 -11 10 0 6 -11 10 -25 10 -14 0 -25 5 -25
11 0 5 -4 8 -9 5 -10 -7 -112 41 -123 58 -5 7 -8 7 -8 1 0 -5 -5 -2 -11 8 -5
9 -17 17 -25 17 -8 0 -12 4 -9 10 3 5 -1 10 -9 10 -8 0 -18 9 -21 20 -4 11
-11 18 -16 15 -5 -4 -12 2 -16 12 -4 10 -15 24 -25 31 -10 7 -18 20 -18 28 0
8 -6 14 -14 14 -8 0 -17 14 -21 30 -4 17 -11 30 -16 30 -5 0 -9 9 -9 20 0 11
-5 20 -11 20 -5 0 -8 4 -5 8 3 5 -2 21 -9 36 -8 15 -16 41 -17 57 -1 16 -5 29
-8 29 -3 0 -6 11 -6 25 -1 16 2 23 10 19 6 -3 3 1 -7 9 -14 11 -15 16 -5 20
11 4 10 7 -1 15 -9 6 -10 12 -2 16 6 4 7 15 1 30 -5 15 -5 27 3 35 8 8 8 11
-1 11 -8 0 -9 7 -3 22 4 13 5 35 0 50 -4 15 -4 30 0 33 5 2 5 22 1 43 -3 21
-4 47 0 57 4 10 4 36 0 56 -4 23 -3 42 3 48 8 8 8 11 -1 11 -8 0 -9 7 -3 22 4
13 5 35 0 50 -4 16 -3 30 2 34 5 3 7 9 4 14 -6 10 -7 59 -3 148 2 36 -1 62 -7
63 -5 0 -4 3 4 6 11 5 11 7 0 14 -8 5 -9 9 -3 9 7 0 8 17 4 50 -4 29 -2 54 4
60 7 7 6 10 -2 10 -8 0 -9 7 -3 22 4 13 5 35 0 50 -4 16 -3 30 2 34 5 3 7 9 4
14 -6 10 -7 59 -3 148 2 36 -1 62 -7 62 -5 0 -3 5 5 10 13 9 13 10 0 10 -9 0
-11 3 -5 8 6 4 10 34 10 67 0 33 -4 63 -10 67 -6 5 -4 8 5 8 13 0 13 1 0 10
-8 5 -10 10 -4 10 7 0 8 17 4 50 -4 29 -2 54 4 60 7 7 6 10 -2 10 -8 0 -9 7
-3 22 4 13 5 35 0 50 -4 16 -3 30 2 34 5 3 7 9 4 14 -6 10 -7 59 -3 148 2 36
-1 62 -7 63 -5 0 -4 3 4 6 11 5 11 7 0 14 -8 5 -9 9 -3 9 7 0 8 17 4 50 -4 29
-2 54 4 60 7 7 6 10 -2 10 -8 0 -9 7 -3 22 4 13 5 35 0 50 -4 15 -4 30 0 33 5
2 5 22 1 43 -3 21 -4 47 0 57 4 10 4 36 0 56 -4 23 -3 42 3 48 8 8 8 11 -1 11
-8 0 -9 7 -3 22 4 13 5 35 0 50 -4 17 -3 30 3 34 6 4 5 10 -3 15 -8 5 -9 9 -4
9 6 0 10 21 11 47 1 64 8 123 14 123 3 0 7 10 7 22 1 13 7 24 13 26 5 2 7 8 4
14 -4 6 -1 14 5 18 7 4 13 17 14 28 1 12 5 22 9 22 4 0 8 7 8 16 0 8 4 13 9
10 5 -3 12 5 15 19 7 26 59 85 76 85 5 0 9 3 9 8 -4 21 3 31 16 26 8 -4 15 -1
15 5 0 6 18 23 40 37 22 15 37 30 34 35 -3 5 2 6 10 3 9 -3 16 -1 16 6 0 6 4
9 9 5 5 -3 12 -1 16 5 4 6 11 8 16 5 5 -4 9 -1 9 5 0 6 5 8 10 5 6 -3 10 -2
10 3 0 6 6 10 13 9 31 -1 48 4 43 12 -4 5 2 7 13 4 10 -3 22 1 26 7 6 9 10 9
16 -1 7 -11 9 -11 9 1z m8056 -13 c4 -4 3 -7 -2 -7 -9 0 -9 -368 0 -378 3 -2
3 -8 0 -13 -6 -11 -6 -1260 0 -1267 3 -3 3 -8 0 -13 -6 -11 -6 -1260 0 -1267
3 -3 3 -9 0 -13 -7 -11 -7 -540 0 -547 3 -2 3 -9 -1 -15 -4 -6 -5 -35 -4 -64
1 -29 0 -53 -4 -53 -7 0 -24 13 -71 57 -19 17 -34 29 -34 26 0 -2 -6 2 -14 9
-39 38 -77 68 -87 68 -5 0 -7 4 -4 10 3 5 0 10 -7 10 -8 0 -20 9 -28 20 -8 11
-18 20 -23 20 -4 0 -21 13 -37 30 -16 16 -34 30 -40 30 -5 0 -10 5 -10 10 0 6
-7 10 -16 10 -8 0 -13 4 -9 9 3 5 -4 12 -15 16 -11 3 -20 13 -20 21 0 8 -4 13
-9 10 -4 -3 -16 3 -26 14 -10 11 -23 17 -29 13 -6 -3 -8 -3 -4 2 8 9 -15 35
-31 35 -6 0 -11 5 -11 10 0 6 -7 10 -16 10 -8 0 -12 4 -9 10 3 5 -5 15 -19 22
-14 6 -26 15 -26 20 0 4 -6 8 -14 8 -8 0 -17 9 -21 20 -3 11 -12 19 -18 17 -7
-1 -11 4 -9 10 1 7 -5 13 -13 13 -8 0 -15 4 -15 10 0 5 -7 6 -17 3 -9 -4 -14
-2 -10 4 6 9 -28 45 -35 37 -3 -2 -11 7 -18 21 -13 25 -37 37 -25 13 4 -7 -6
1 -21 17 -15 17 -31 29 -36 27 -4 -1 -8 4 -8 11 0 8 -12 19 -26 25 -14 7 -22
17 -19 22 4 6 3 10 -2 9 -20 -3 -34 2 -28 11 3 6 1 10 -4 10 -11 0 -43 25 -93
72 -15 15 -28 24 -28 20 0 -4 -5 1 -11 11 -6 9 -14 15 -20 12 -5 -4 -9 1 -9
10 0 9 -4 13 -10 10 -5 -3 -10 1 -10 10 0 9 -4 14 -8 11 -5 -3 -15 3 -23 12
-9 9 -30 28 -49 42 -19 14 -40 33 -49 42 -8 9 -18 15 -23 12 -4 -3 -8 2 -8 10
0 9 -5 16 -11 16 -16 0 -39 26 -31 35 4 5 2 5 -4 2 -6 -3 -31 11 -55 33 -24
21 -51 45 -59 52 -8 7 -18 12 -22 11 -4 -2 -10 6 -13 17 -4 11 -11 18 -16 15
-5 -4 -9 -1 -9 5 0 6 -4 9 -9 5 -5 -3 -12 4 -16 15 -4 11 -10 18 -15 15 -4 -3
-11 2 -14 11 -3 8 -10 12 -16 9 -5 -3 -10 2 -10 11 0 10 -3 14 -6 11 -4 -3
-20 8 -35 24 -16 17 -29 28 -29 25 0 -3 -14 7 -31 22 -17 15 -46 41 -65 57
-56 50 -63 55 -74 55 -13 0 -12 -35 -14 470 -2 419 2 498 25 484 5 -3 9 2 9
10 0 10 6 13 15 10 8 -4 15 -1 15 5 0 6 7 11 15 11 8 0 15 4 15 10 0 5 11 12
25 16 14 3 22 10 19 15 -3 5 1 9 9 9 7 0 23 9 35 20 12 12 22 17 22 13 0 -4 5
0 11 10 6 9 14 15 20 12 5 -4 9 -1 9 4 0 6 5 11 11 11 10 0 30 15 87 61 6 5
12 6 12 2 0 -4 4 -3 8 2 4 6 54 41 112 80 58 38 107 73 108 77 2 5 8 6 13 2 5
-3 12 2 15 10 3 9 12 16 20 16 8 0 14 5 14 11 0 5 4 8 9 4 5 -3 16 3 23 13 13
19 18 22 39 22 5 0 7 5 3 12 -5 8 -2 9 9 5 11 -4 17 -1 17 9 0 8 5 12 11 9 5
-4 21 5 35 20 13 14 24 22 24 18 0 -4 7 1 15 11 8 11 15 14 15 8 0 -7 7 -5 18
6 33 31 62 52 62 45 0 -3 9 4 19 16 11 12 23 23 28 23 23 3 43 11 43 19 0 4
18 18 40 30 22 13 40 26 40 30 0 6 42 21 48 16 2 -1 10 9 17 23 8 14 14 22 15
18 0 -4 44 22 98 58 53 35 106 70 116 77 11 6 28 20 38 30 10 9 18 14 18 11 0
-4 7 -1 15 6 8 7 15 9 15 4 0 -5 5 -1 11 8 5 9 27 27 49 39 22 13 40 26 40 31
0 4 5 8 12 8 6 0 26 11 43 25 18 13 35 21 39 18 3 -4 6 -2 6 4 0 12 108 79
121 76 5 -2 8 0 8 5 -3 15 2 20 16 18 8 -1 18 -5 21 -9z"/>
<path d="M1292 4324 c-277 -74 -367 -426 -160 -626 51 -49 79 -66 157 -93 38
-13 332 -15 2546 -15 2449 0 2503 0 2558 19 181 62 293 249 255 426 -31 145
-136 253 -283 294 -29 8 -752 11 -2530 10 -2130 0 -2498 -2 -2543 -15z"/>
<path d="M3460 3283 c-66 -23 -146 -80 -185 -130 -129 -169 -90 -416 85 -533
111 -75 -7 -70 1555 -70 1360 0 1404 1 1458 19 355 122 340 622 -21 716 -49
13 -251 15 -1452 14 -1235 -1 -1400 -3 -1440 -16z"/>
<path d="M2353 2265 c-205 -55 -324 -275 -257 -476 39 -119 144 -216 269 -248
27 -8 674 -11 2001 -11 1750 0 1966 2 2013 16 251 74 353 362 205 576 -28 40
-88 93 -132 115 -85 45 -9 43 -2086 42 -1653 0 -1969 -3 -2013 -14z"/>
</g>
</svg>
